<?xml version="1.0" encoding="utf-8"?>
<!-- Generator: Adobe Illustrator 22.1.0, SVG Export Plug-In . SVG Version: 6.00 Build 0)  -->
<svg version="1.1" id="Capa_1" xmlns="http://www.w3.org/2000/svg" xmlns:xlink="http://www.w3.org/1999/xlink" x="0px" y="0px"
	 viewBox="0 0 397.3 156.7" enable-background="new 0 0 397.3 156.7" xml:space="preserve">
<g>
	<linearGradient id="SVGID_1_" gradientUnits="userSpaceOnUse" x1="198.6414" y1="157.1797" x2="198.6414" y2="-3.1422">
		<stop  offset="0" style="stop-color:#004772"/>
		<stop  offset="1" style="stop-color:#0274B9"/>
	</linearGradient>
	<path fill="url(#SVGID_1_)" d="M38.3,156.7L38.3,156.7c-10.6,0-20.2-4.3-27.1-11.3C4.2,138.5,0,129,0,118.4V0h358.9h0v0
		c10.6,0,20.2,4.3,27.1,11.3c6.9,7,11.3,16.6,11.3,27.1h0v0v118.3L38.3,156.7z"/>
	<path fill="#FFFFFF" d="M305.9,99.3v11c-5,2.8-10.9,4.1-17.8,4.1c-4.2,0-8-0.6-11.4-1.8c-3.4-1.2-6.2-3-8.5-5.2
		c-2.3-2.3-4.1-5.2-5.3-8.5c-1.2-3.3-1.8-7.1-1.8-11.3c0-5.1,0.9-9.7,2.7-13.9c1.8-4.2,4.5-7.5,8.2-9.9c3.6-2.4,8-3.6,13.2-3.6
		c9.1,0,15.4,2.7,19.1,8.2c3.7,5.5,5.5,13.2,5.5,23.1h-35.8c0.3,4.1,1.8,7.3,4.4,9.6c2.7,2.3,6.1,3.5,10.3,3.5
		C293.8,104.5,299.6,102.8,305.9,99.3L305.9,99.3z M273.9,82.2h22.9c-0.2-3.6-1.2-6.5-3-8.8c-1.8-2.3-4.4-3.4-8-3.4
		c-3.6,0-6.4,1.1-8.5,3.3C275.4,75.6,274.2,78.5,273.9,82.2L273.9,82.2z"/>
	<path fill="#FFFFFF" d="M206.1,113.2V42.1h15.4h2.2c4.8,0,8.9,0.2,12.2,0.5c3.3,0.3,6.4,1.1,9.4,2.3c2.9,1.2,5.3,3.1,7.1,5.8
		c1.8,2.7,2.6,6.2,2.6,10.7c0,2.8-0.6,5.4-1.8,7.7c-1.2,2.4-2.9,4.3-5.1,5.9c-2.2,1.6-4.8,2.5-7.8,2.9V78c2.9,0.2,5.4,2.7,7.5,7.4
		l11.4,27.8h-15.9L234.8,91c-0.7-1.8-1.4-3.2-2.2-4.3c-0.8-1.1-1.8-1.8-2.9-2.3c-1.2-0.5-2.8-0.7-4.8-0.7h-4.6v29.5H206.1
		L206.1,113.2z M220.3,53.3v19.1h4.7c4.5,0,8.1-0.7,10.9-2c2.8-1.3,4.2-3.9,4.2-7.9c0-3.8-1.4-6.3-4.1-7.5c-2.7-1.2-6.4-1.7-11-1.7
		H220.3L220.3,53.3z"/>
	<path fill="#FFFFFF" d="M188.6,101.6v9.5c-0.8,0.3-1.8,0.7-2.9,1.1c-1.1,0.4-2.3,0.8-3.6,1.1c-1.3,0.3-2.7,0.6-4.3,0.8
		c-1.6,0.2-3.4,0.3-5.4,0.3c-5.9,0-10.8-1.1-14.8-3.4c-4-2.3-6.9-5.5-8.9-9.6c-1.9-4.2-2.9-9.1-2.9-14.7c0-5,1-9.5,3-13.5
		c2-3.9,4.8-7,8.5-9.2c3.7-2.2,7.8-3.3,12.6-3.3c5.5,0,9.9,1.2,13.3,3.7c3.4,2.4,5.8,5.8,7.2,10.2c1.4,4.3,2.2,9.4,2.2,15.2h-36.6
		c0,3.3,0.8,6.2,2.3,8.8c1.6,2.6,3.6,4.6,6.2,6.1c2.6,1.5,5.4,2.2,8.4,2.2c2.8,0,5.8-0.6,9-1.7C185,103.9,187.2,102.7,188.6,101.6
		L188.6,101.6z M155.9,82.6h26.6c0-2.6-0.5-5.1-1.5-7.2c-1-2.2-2.5-3.9-4.4-5.2c-1.9-1.3-4.2-1.9-6.8-1.9c-2.9,0-5.4,0.7-7.3,2.1
		c-2,1.4-3.5,3.2-4.5,5.3C156.8,77.8,156.2,80.1,155.9,82.6L155.9,82.6z"/>
	<polygon fill="#FFFFFF" points="126,41.9 135.4,41.9 135.4,113.2 126,113.2 126,41.9 	"/>
	<path fill="#FFFFFF" d="M110.8,101.6v9.5c-0.8,0.3-1.8,0.7-2.9,1.1c-1.1,0.4-2.3,0.8-3.6,1.1c-1.3,0.3-2.7,0.6-4.3,0.8
		c-1.6,0.2-3.4,0.3-5.4,0.3c-5.9,0-10.8-1.1-14.8-3.4c-4-2.3-6.9-5.5-8.9-9.6C69,97.2,68,92.3,68,86.7c0-5,1-9.5,3-13.5
		c2-3.9,4.8-7,8.5-9.2c3.7-2.2,7.8-3.3,12.6-3.3c5.5,0,9.9,1.2,13.3,3.7c3.4,2.4,5.8,5.8,7.2,10.2c1.4,4.3,2.2,9.4,2.2,15.2H78.1
		c0,3.3,0.8,6.2,2.3,8.8c1.6,2.6,3.6,4.6,6.2,6.1c2.6,1.5,5.4,2.2,8.4,2.2c2.8,0,5.8-0.6,9-1.7C107.2,103.9,109.5,102.8,110.8,101.6
		L110.8,101.6z M78.1,82.6h26.5c0-2.6-0.5-5.1-1.5-7.2c-1-2.2-2.5-3.9-4.4-5.2c-1.9-1.3-4.2-1.9-6.8-1.9c-2.9,0-5.3,0.7-7.3,2.1
		c-2,1.4-3.5,3.2-4.5,5.3C79,77.9,78.4,80.2,78.1,82.6L78.1,82.6z"/>
	<path fill="#FFFFFF" d="M355.3,113.3v-5.4h-0.2c-3.7,4.4-9,6.6-15.9,6.6c-3.8,0-7.1-0.7-9.9-2c-2.8-1.4-5-3.2-6.8-5.6
		c-1.7-2.4-3-5.1-3.8-8.1c-0.8-3-1.2-6.3-1.2-9.7c0-3.5,0.4-6.7,1.2-9.7c0.8-3,2.1-5.6,3.8-8c1.7-2.3,4-4.2,6.8-5.5
		c2.8-1.3,6.1-2,9.9-2c6.4,0,11.5,2.2,15.5,6.7h0.2V41.8h13.5v71.4H355.3L355.3,113.3z M331.6,89c0,4.1,0.9,7.7,2.7,10.9
		c1.8,3.2,4.7,4.8,8.7,4.8c2.8,0,5.1-0.8,6.9-2.4c1.8-1.6,3-3.5,3.8-5.9c0.8-2.4,1.2-4.8,1.2-7.4c0-1.7-0.2-3.5-0.7-5.4
		c-0.5-1.8-1.2-3.5-2.2-5c-1-1.5-2.2-2.7-3.8-3.6c-1.5-0.9-3.3-1.4-5.4-1.4c-2.7,0-4.9,0.8-6.6,2.4c-1.7,1.6-2.8,3.5-3.5,5.9
		C331.9,84.2,331.6,86.6,331.6,89L331.6,89z"/>
	<g>
		<path fill="#FFFFFF" d="M45,50.8H22.8v-9h54.6v9H55.2v62.4H45V50.8z"/>
	</g>
</g>
</svg>
